<?xml version="1.0" encoding="UTF-8" standalone="no"?>
<!-- Created with Inkscape (http://www.inkscape.org/) -->

<svg
   xmlns:dc="http://purl.org/dc/elements/1.1/"
   xmlns:cc="http://creativecommons.org/ns#"
   xmlns:rdf="http://www.w3.org/1999/02/22-rdf-syntax-ns#"
   xmlns:svg="http://www.w3.org/2000/svg"
   xmlns="http://www.w3.org/2000/svg"
   xmlns:sodipodi="http://sodipodi.sourceforge.net/DTD/sodipodi-0.dtd"
   xmlns:inkscape="http://www.inkscape.org/namespaces/inkscape"
   width="58.633793mm"
   height="38.471828mm"
   viewBox="0 0 58.633793 38.471828"
   version="1.1"
   id="svg894"
   inkscape:version="0.92.4 (5da689c313, 2019-01-14)"
   sodipodi:docname="ssk.svg">
  <defs
     id="defs888" />
  <sodipodi:namedview
     id="base"
     pagecolor="#ffffff"
     bordercolor="#666666"
     borderopacity="1.0"
     inkscape:pageopacity="0.0"
     inkscape:pageshadow="2"
     inkscape:zoom="0.7"
     inkscape:cx="-331.70985"
     inkscape:cy="-74.476278"
     inkscape:document-units="mm"
     inkscape:current-layer="layer1"
     showgrid="false"
     fit-margin-top="0"
     fit-margin-left="0"
     fit-margin-right="0"
     fit-margin-bottom="0"
     inkscape:window-width="1920"
     inkscape:window-height="1137"
     inkscape:window-x="-8"
     inkscape:window-y="705"
     inkscape:window-maximized="1" />
  <metadata
     id="metadata891">
    <rdf:RDF>
      <cc:Work
         rdf:about="">
        <dc:format>image/svg+xml</dc:format>
        <dc:type
           rdf:resource="http://purl.org/dc/dcmitype/StillImage" />
        <dc:title></dc:title>
      </cc:Work>
    </rdf:RDF>
  </metadata>
  <g
     inkscape:label="Layer 1"
     inkscape:groupmode="layer"
     id="layer1"
     transform="translate(-69.312751,-113.09054)">
    <g
       id="g5188"
       transform="translate(-78.942675,32.146884)" />
    <flowRoot
       xml:space="preserve"
       id="flowRoot5212"
       style="font-style:normal;font-weight:normal;font-size:40px;line-height:125%;font-family:sans-serif;letter-spacing:0px;word-spacing:0px;fill:#000000;fill-opacity:1;stroke:none;stroke-width:1px;stroke-linecap:butt;stroke-linejoin:miter;stroke-opacity:1"
       transform="scale(0.26458333)"><flowRegion
         id="flowRegion5214"><rect
           id="rect5216"
           width="22.728432"
           height="54.548237"
           x="-567.70575"
           y="447.73779" /></flowRegion><flowPara
         id="flowPara5218"></flowPara></flowRoot>    <g
       id="g5337"
       transform="translate(120.28747,-14.397825)">
      <g
         aria-label="Sport"
         transform="matrix(1.0263315,0,0,0.97434405,89.000753,0)"
         style="font-style:normal;font-weight:normal;font-size:14.9685955px;line-height:125%;font-family:sans-serif;letter-spacing:0px;word-spacing:0px;fill:#000000;fill-opacity:1;stroke:none;stroke-width:0.37421486px;stroke-linecap:butt;stroke-linejoin:miter;stroke-opacity:1"
         id="text5206">
        <path
           d="m -130.33982,131.84665 -1.28636,1.41061 q -1.01594,-0.59933 -1.46178,-0.59933 -0.34352,0 -0.59202,0.26312 -0.2485,0.25581 -0.2485,0.61395 0,0.70896 1.28636,1.22789 0.94285,0.40199 1.42524,0.73089 0.48238,0.32159 0.80397,0.89899 0.3289,0.57741 0.3289,1.24982 0,1.2352 -1.00131,2.14882 -0.99401,0.91361 -2.35346,0.91361 -1.49102,0 -2.94549,-1.40331 l 1.35946,-1.58603 q 0.91361,0.94285 1.71028,0.94285 0.37275,0 0.71627,-0.3289 0.34351,-0.33621 0.34351,-0.70165 0,-0.75282 -1.58602,-1.32291 -0.90631,-0.3289 -1.28637,-0.61395 -0.38006,-0.29235 -0.64318,-0.84052 -0.25581,-0.55548 -0.25581,-1.13288 0,-1.27905 0.83321,-2.07572 0.83322,-0.79667 2.17805,-0.79667 1.59334,0 2.67505,1.00132 z"
           style="font-style:normal;font-variant:normal;font-weight:bold;font-stretch:normal;font-family:'Tw Cen MT';-inkscape-font-specification:'Tw Cen MT Bold';fill:#59c7eb;fill-opacity:1;stroke-width:0.37421486px"
           id="path5248"
           inkscape:connector-curvature="0" />
        <path
           d="m -126.76577,134.30243 v 0.91361 h 0.0292 q 0.4093,-0.54816 0.84783,-0.79666 0.44584,-0.25582 1.0671,-0.25582 1.12557,0 1.91493,0.9867 0.79667,0.9867 0.79667,2.39732 0,1.29367 -0.77475,2.2219 -0.76743,0.92092 -1.82722,0.92092 -0.65049,0 -1.08902,-0.27043 -0.43853,-0.27043 -0.9063,-0.86245 h -0.0292 v 3.786 h -1.90031 v -9.04109 z m 2.69698,3.23053 q 0,-0.61395 -0.39468,-1.05248 -0.39468,-0.44584 -0.94285,-0.44584 -0.54086,0 -0.92092,0.43853 -0.38006,0.43123 -0.38006,1.05979 0,0.60664 0.39468,1.03786 0.40199,0.43123 0.97208,0.43123 0.55547,0 0.91361,-0.4093 0.35814,-0.4093 0.35814,-1.05979 z"
           style="font-style:normal;font-variant:normal;font-weight:bold;font-stretch:normal;font-family:'Tw Cen MT';-inkscape-font-specification:'Tw Cen MT Bold';stroke-width:0.37421486px"
           id="path5250"
           inkscape:connector-curvature="0" />
        <path
           d="m -120.89674,137.44525 q 0,-1.45446 0.92823,-2.37538 0.92823,-0.92092 2.3827,-0.92092 1.35214,0 2.26575,0.94284 0.92092,0.93554 0.92092,2.32423 0,1.41792 -0.92092,2.35346 -0.91361,0.93554 -2.29499,0.93554 -1.55679,0 -2.41924,-0.9867 -0.86245,-0.99401 -0.86245,-2.27307 z m 4.65576,0 q 0,-0.63587 -0.41661,-1.11095 -0.4166,-0.47507 -0.97208,-0.47507 -0.5774,0 -0.99401,0.44584 -0.4166,0.44584 -0.4166,1.06709 0,0.67973 0.4093,1.15481 0.4166,0.47508 1.00131,0.47508 0.55548,0 0.97208,-0.46046 0.41661,-0.46777 0.41661,-1.09634 z"
           style="font-style:normal;font-variant:normal;font-weight:bold;font-stretch:normal;font-family:'Tw Cen MT';-inkscape-font-specification:'Tw Cen MT Bold';stroke-width:0.37421486px"
           id="path5252"
           inkscape:connector-curvature="0" />
        <path
           d="m -110.9932,134.28782 v 0.92822 h 0.0292 q 0.27773,-0.46777 0.64318,-0.73819 0.37275,-0.27774 0.68703,-0.27774 0.19003,0 0.34352,0.0292 v 2.04649 q -0.23388,-0.0439 -0.46046,-0.0439 -0.5774,0 -0.89899,0.4093 -0.31428,0.40198 -0.31428,1.13287 v 2.79931 h -1.90031 v -6.28564 z"
           style="font-style:normal;font-variant:normal;font-weight:bold;font-stretch:normal;font-family:'Tw Cen MT';-inkscape-font-specification:'Tw Cen MT Bold';stroke-width:0.37421486px"
           id="path5254"
           inkscape:connector-curvature="0" />
        <path
           d="m -107.34607,132.13169 h 1.87108 v 2.15613 h 0.89899 v 1.71758 h -0.89899 v 4.56806 h -1.87108 v -4.56806 h -0.71627 v -1.71758 h 0.71627 z"
           style="font-style:normal;font-variant:normal;font-weight:bold;font-stretch:normal;font-family:'Tw Cen MT';-inkscape-font-specification:'Tw Cen MT Bold';stroke-width:0.37421486px"
           id="path5256"
           inkscape:connector-curvature="0" />
      </g>
      <g
         aria-label="Science"
         transform="matrix(1.0263315,0,0,0.97434405,89.000753,-1.0690781)"
         style="font-style:normal;font-weight:normal;font-size:14.9685955px;line-height:125%;font-family:sans-serif;letter-spacing:0px;word-spacing:0px;fill:#000000;fill-opacity:1;stroke:none;stroke-width:0.37421486px;stroke-linecap:butt;stroke-linejoin:miter;stroke-opacity:1"
         id="text5234">
        <path
           d="m -130.33982,147.57941 -1.28636,1.41061 q -1.01594,-0.59933 -1.46178,-0.59933 -0.34352,0 -0.59202,0.26312 -0.2485,0.25581 -0.2485,0.61395 0,0.70896 1.28636,1.22789 0.94285,0.40199 1.42524,0.73089 0.48238,0.32159 0.80397,0.89899 0.3289,0.5774 0.3289,1.24982 0,1.2352 -1.00131,2.14881 -0.99401,0.91361 -2.35346,0.91361 -1.49102,0 -2.94549,-1.4033 l 1.35946,-1.58603 q 0.91361,0.94285 1.71028,0.94285 0.37275,0 0.71627,-0.3289 0.34351,-0.33621 0.34351,-0.70166 0,-0.75281 -1.58602,-1.32291 -0.90631,-0.32889 -1.28637,-0.61394 -0.38006,-0.29236 -0.64318,-0.84052 -0.25581,-0.55548 -0.25581,-1.13288 0,-1.27906 0.83321,-2.07572 0.83322,-0.79667 2.17805,-0.79667 1.59334,0 2.67505,1.00132 z"
           style="font-style:normal;font-variant:normal;font-weight:bold;font-stretch:normal;font-family:'Tw Cen MT';-inkscape-font-specification:'Tw Cen MT Bold';fill:#59c7eb;fill-opacity:1;stroke-width:0.37421486px"
           id="path5259"
           inkscape:connector-curvature="0" />
        <path
           d="m -124.11996,154.13547 v 1.87108 q -0.96477,0.43122 -1.60064,0.43122 -1.41793,0 -2.36808,-0.93553 -0.95016,-0.93554 -0.95016,-2.33885 0,-1.41061 0.87707,-2.33884 0.88437,-0.92823 2.23652,-0.92823 0.94284,0 1.82722,0.43853 v 1.76875 q -0.8186,-0.39467 -1.49832,-0.39467 -0.62857,0 -1.01594,0.38737 -0.38006,0.38006 -0.38006,1.00862 0,0.62126 0.38006,1.00863 0.38007,0.38006 1.00132,0.38006 0.56278,0 1.49101,-0.35814 z"
           style="font-style:normal;font-variant:normal;font-weight:bold;font-stretch:normal;font-family:'Tw Cen MT';-inkscape-font-specification:'Tw Cen MT Bold';stroke-width:0.37421486px"
           id="path5261"
           inkscape:connector-curvature="0" />
        <path
           d="m -122.78243,147.69635 q 0,-0.47508 0.34352,-0.8186 0.34351,-0.34352 0.8259,-0.34352 0.48239,0 0.8259,0.34352 0.34352,0.34352 0.34352,0.8186 0,0.48238 -0.34352,0.8259 -0.34351,0.34352 -0.8259,0.34352 -0.48239,0 -0.8259,-0.34352 -0.34352,-0.34352 -0.34352,-0.8259 z m 0.24119,2.32422 h 1.87108 v 6.28564 h -1.87108 z"
           style="font-style:normal;font-variant:normal;font-weight:bold;font-stretch:normal;font-family:'Tw Cen MT';-inkscape-font-specification:'Tw Cen MT Bold';stroke-width:0.37421486px"
           id="path5263"
           inkscape:connector-curvature="0" />
        <path
           d="m -112.8862,153.60923 h -4.48035 q 0.0366,0.60664 0.39468,0.9867 0.36545,0.38007 0.84783,0.38007 0.86245,0 1.35215,-0.78205 l 1.71758,0.57009 q -0.95746,1.67373 -2.97471,1.67373 -1.4837,0 -2.36077,-0.89899 -0.87707,-0.89899 -0.87707,-2.41924 0,-1.36676 0.92092,-2.29499 0.92823,-0.92823 2.28037,-0.92823 1.35946,0 2.26576,0.97939 0.91361,0.97208 0.91361,2.43386 z m -4.46573,-1.25712 h 2.52887 q -0.26312,-1.17673 -1.20596,-1.17673 -0.54086,0 -0.89899,0.30697 -0.35083,0.30697 -0.42392,0.86976 z"
           style="font-style:normal;font-variant:normal;font-weight:bold;font-stretch:normal;font-family:'Tw Cen MT';-inkscape-font-specification:'Tw Cen MT Bold';stroke-width:0.37421486px"
           id="path5265"
           inkscape:connector-curvature="0" />
        <path
           d="m -109.56066,150.02057 v 0.74551 q 0.95747,-0.89899 2.00994,-0.89899 0.899,0 1.48371,0.73819 0.59202,0.7382 0.59202,1.8857 v 3.81523 h -1.90031 v -3.51557 q 0,-0.54086 -0.29967,-0.91361 -0.29235,-0.37275 -0.71627,-0.37275 -0.51162,0 -0.84052,0.47507 -0.3289,0.46777 -0.3289,1.21328 v 3.11358 h -1.87107 v -6.28564 z"
           style="font-style:normal;font-variant:normal;font-weight:bold;font-stretch:normal;font-family:'Tw Cen MT';-inkscape-font-specification:'Tw Cen MT Bold';stroke-width:0.37421486px"
           id="path5267"
           inkscape:connector-curvature="0" />
        <path
           d="m -99.065101,154.13547 v 1.87108 q -0.964769,0.43122 -1.600649,0.43122 -1.41792,0 -2.36807,-0.93553 -0.95016,-0.93554 -0.95016,-2.33885 0,-1.41061 0.87707,-2.33884 0.88437,-0.92823 2.23651,-0.92823 0.942851,0 1.827226,0.43853 v 1.76875 q -0.818595,-0.39467 -1.498326,-0.39467 -0.62856,0 -1.01593,0.38737 -0.38006,0.38006 -0.38006,1.00862 0,0.62126 0.38006,1.00863 0.38006,0.38006 1.00132,0.38006 0.562781,0 1.491009,-0.35814 z"
           style="font-style:normal;font-variant:normal;font-weight:bold;font-stretch:normal;font-family:'Tw Cen MT';-inkscape-font-specification:'Tw Cen MT Bold';stroke-width:0.37421486px"
           id="path5269"
           inkscape:connector-curvature="0" />
        <path
           d="m -91.71967,153.60923 h -4.480346 q 0.03654,0.60664 0.394679,0.9867 0.365445,0.38007 0.847831,0.38007 0.862448,0 1.352144,-0.78205 l 1.717587,0.57009 q -0.957463,1.67373 -2.974716,1.67373 -1.483703,0 -2.360769,-0.89899 -0.877066,-0.89899 -0.877066,-2.41924 0,-1.36676 0.920919,-2.29499 0.928228,-0.92823 2.280372,-0.92823 1.359453,0 2.265754,0.97939 0.913611,0.97208 0.913611,2.43386 z m -4.465729,-1.25712 h 2.528874 q -0.263119,-1.17673 -1.205966,-1.17673 -0.540857,0 -0.898992,0.30697 -0.350827,0.30697 -0.423916,0.86976 z"
           style="font-style:normal;font-variant:normal;font-weight:bold;font-stretch:normal;font-family:'Tw Cen MT';-inkscape-font-specification:'Tw Cen MT Bold';stroke-width:0.37421486px"
           id="path5271"
           inkscape:connector-curvature="0" />
      </g>
      <g
         aria-label="Konstanz"
         transform="matrix(1.0263315,0,0,0.97434405,89.401657,-0.40090429)"
         style="font-style:normal;font-weight:normal;font-size:14.9685955px;line-height:125%;font-family:sans-serif;letter-spacing:0px;word-spacing:0px;fill:#000000;fill-opacity:1;stroke:none;stroke-width:0.37421486px;stroke-linecap:butt;stroke-linejoin:miter;stroke-opacity:1"
         id="text5238">
        <path
           d="m -136.38427,161.01351 h 2.06841 v 4.05643 h 0.0292 l 3.18667,-4.05643 h 2.52887 l -3.64713,4.58267 3.80062,5.0139 h -2.48502 l -3.38401,-4.48766 h -0.0292 v 4.48766 h -2.06841 z"
           style="font-style:normal;font-variant:normal;font-weight:bold;font-stretch:normal;font-family:'Tw Cen MT';-inkscape-font-specification:'Tw Cen MT Bold';fill:#59c7eb;fill-opacity:1;stroke-width:0.37421486px"
           id="path5274"
           inkscape:connector-curvature="0" />
        <path
           d="m -127.77441,167.48187 q 0,-1.45446 0.92823,-2.37538 0.92823,-0.92092 2.3827,-0.92092 1.35214,0 2.26575,0.94284 0.92092,0.93554 0.92092,2.32423 0,1.41792 -0.92092,2.35346 -0.91361,0.93554 -2.29499,0.93554 -1.55679,0 -2.41924,-0.9867 -0.86245,-0.99401 -0.86245,-2.27307 z m 4.65576,0 q 0,-0.63587 -0.4166,-1.11095 -0.41661,-0.47507 -0.97209,-0.47507 -0.5774,0 -0.994,0.44584 -0.41661,0.44584 -0.41661,1.0671 0,0.67972 0.4093,1.1548 0.4166,0.47508 1.00131,0.47508 0.55548,0 0.97209,-0.46046 0.4166,-0.46777 0.4166,-1.09634 z"
           style="font-style:normal;font-variant:normal;font-weight:bold;font-stretch:normal;font-family:'Tw Cen MT';-inkscape-font-specification:'Tw Cen MT Bold';stroke-width:0.37421486px"
           id="path5276"
           inkscape:connector-curvature="0" />
        <path
           d="m -117.62968,164.32444 v 0.7455 q 0.95747,-0.89899 2.00995,-0.89899 0.89899,0 1.4837,0.7382 0.59202,0.73819 0.59202,1.88569 v 3.81524 h -1.90031 v -3.51558 q 0,-0.54085 -0.29966,-0.91361 -0.29236,-0.37275 -0.71627,-0.37275 -0.51163,0 -0.84053,0.47508 -0.3289,0.46777 -0.3289,1.21327 v 3.11359 h -1.87107 v -6.28564 z"
           style="font-style:normal;font-variant:normal;font-weight:bold;font-stretch:normal;font-family:'Tw Cen MT';-inkscape-font-specification:'Tw Cen MT Bold';stroke-width:0.37421486px"
           id="path5278"
           inkscape:connector-curvature="0" />
        <path
           d="m -107.06834,165.20881 -1.27174,0.77474 q -0.54817,-0.55547 -1.02325,-0.55547 -0.23388,0 -0.40198,0.13156 -0.16811,0.13156 -0.16811,0.32159 0,0.30697 0.19003,0.44584 0.19734,0.13887 1.03786,0.43122 0.84053,0.28505 1.32291,0.7382 0.4897,0.45315 0.4897,1.25713 0,0.81129 -0.73089,1.396 -0.73089,0.5774 -1.75413,0.5774 -0.69435,0 -1.38869,-0.38737 -0.68704,-0.38737 -1.16942,-1.18404 l 1.51294,-0.68704 q 0.51162,0.88438 1.05978,0.88438 0.24851,0 0.44585,-0.1608 0.19734,-0.16079 0.19734,-0.36544 0,-0.26312 -0.22658,-0.39468 -0.22657,-0.13887 -0.33621,-0.13887 -0.0439,-0.0512 -0.52624,-0.20465 -1.88569,-0.61394 -1.88569,-1.99532 0,-0.83322 0.67242,-1.35946 0.67972,-0.53354 1.76875,-0.53354 1.20596,0 2.18535,1.00862 z"
           style="font-style:normal;font-variant:normal;font-weight:bold;font-stretch:normal;font-family:'Tw Cen MT';-inkscape-font-specification:'Tw Cen MT Bold';stroke-width:0.37421486px"
           id="path5280"
           inkscape:connector-curvature="0" />
        <path
           d="m -105.29228,162.16832 h 1.87108 v 2.15612 h 0.89899 v 1.71758 h -0.89899 v 4.56806 h -1.87108 v -4.56806 h -0.71627 v -1.71758 h 0.71627 z"
           style="font-style:normal;font-variant:normal;font-weight:bold;font-stretch:normal;font-family:'Tw Cen MT';-inkscape-font-specification:'Tw Cen MT Bold';stroke-width:0.37421486px"
           id="path5282"
           inkscape:connector-curvature="0" />
        <path
           d="m -97.230578,170.61008 v -1.07441 h -0.02924 q -0.438533,0.62856 -0.884375,0.91361 -0.445842,0.27774 -1.103641,0.27774 -1.103636,0 -1.878376,-0.95016 -0.77475,-0.95015 -0.77475,-2.3096 0,-1.34484 0.82591,-2.3023 0.8259,-0.96477 1.958776,-0.96477 0.540857,0 0.972081,0.24119 0.431224,0.24119 0.913611,0.76743 v -0.86976 h 1.871074 v 6.27103 z m -1.37407,-4.53882 q -0.555476,0 -0.928229,0.44584 -0.372753,0.43853 -0.372753,1.11095 0,0.62857 0.350827,1.01594 0.358135,0.38006 0.935537,0.38006 0.555475,0 0.950155,-0.43853 0.39468,-0.44585 0.39468,-1.07441 0,-0.58471 -0.39468,-1.00863 -0.39468,-0.43122 -0.935537,-0.43122 z"
           style="font-style:normal;font-variant:normal;font-weight:bold;font-stretch:normal;font-family:'Tw Cen MT';-inkscape-font-specification:'Tw Cen MT Bold';stroke-width:0.37421486px"
           id="path5284"
           inkscape:connector-curvature="0" />
        <path
           d="m -91.493102,164.32444 v 0.7455 q 0.957463,-0.89899 2.009943,-0.89899 0.898993,0 1.483703,0.7382 0.59202,0.73819 0.59202,1.88569 v 3.81524 h -1.90031 v -3.51558 q 0,-0.54085 -0.299664,-0.91361 -0.292356,-0.37275 -0.716271,-0.37275 -0.511622,0 -0.840522,0.47508 -0.328899,0.46777 -0.328899,1.21327 v 3.11359 h -1.871075 v -6.28564 z"
           style="font-style:normal;font-variant:normal;font-weight:bold;font-stretch:normal;font-family:'Tw Cen MT';-inkscape-font-specification:'Tw Cen MT Bold';stroke-width:0.37421486px"
           id="path5286"
           inkscape:connector-curvature="0" />
        <path
           d="m -85.572908,164.32444 h 5.927506 l -3.325543,4.56074 h 2.799303 v 1.7249 h -5.927506 l 3.340161,-4.58267 h -2.813921 z"
           style="font-style:normal;font-variant:normal;font-weight:bold;font-stretch:normal;font-family:'Tw Cen MT';-inkscape-font-specification:'Tw Cen MT Bold';stroke-width:0.37421486px"
           id="path5288"
           inkscape:connector-curvature="0" />
      </g>
    </g>
  </g>
</svg>
