<?xml version="1.0" encoding="UTF-8" standalone="no"?>
<!-- Created with Inkscape (http://www.inkscape.org/) -->
<svg
   xmlns:svg="http://www.w3.org/2000/svg"
   xmlns="http://www.w3.org/2000/svg"
   version="1.0"
   width="247.14059"
   height="64.300041"
   id="svg2"
   xml:space="preserve"><defs
     id="defs5"><clipPath
       id="clipPath17"><path
         d="M 668.126,519.08 L 813.26,519.08 L 813.26,557.064 L 668.126,557.064 L 668.126,519.08 z"
         id="path19" /></clipPath><clipPath
       id="clipPath37"><path
         d="M 0,0 L 841.89,0 L 841.89,595.276 L 0,595.276 L 0,0 z"
         id="path39" /></clipPath><clipPath
       id="clipPath57"><path
         d="M 0,0 L 841.89,0 L 841.89,595.276 L 0,595.276 L 0,0 z"
         id="path59" /></clipPath></defs><g
     transform="matrix(1.25,0,0,-1.25,-769.07891,696.09875)"
     id="g11"><path
       d="M 627.88357,547.52172 C 627.88357,548.49547 627.86032,550.2173 629.33325,550.2173 C 630.85131,550.2173 630.80618,548.63223 630.80618,547.52172 L 627.88357,547.52172 z M 634.00095,545.7315 C 634.11446,549.4022 633.63853,552.18942 629.33325,552.18942 C 625.1196,552.18942 624.66555,549.51571 624.66555,546.38796 C 624.66555,542.80888 625.20986,540.29382 629.33325,540.29382 C 630.82943,540.29382 631.96182,540.70138 632.70991,541.40434 C 633.47988,542.10593 633.88743,543.12617 633.93257,544.37208 L 630.69266,544.37208 C 630.69266,543.42021 630.46701,542.33295 629.33325,542.33295 C 627.9287,542.33295 627.88357,544.37208 627.88357,545.7315 L 634.00095,545.7315 z"
       id="path2742"
       style="fill:#000000;fill-opacity:1;fill-rule:nonzero;stroke:none" /><path
       d="M 622.96696,551.96239 L 615.42178,551.96239 L 615.42178,549.92326 L 619.75031,549.92326 L 615.26313,542.78564 L 615.26313,540.52085 L 623.03534,540.52085 L 623.03534,542.55998 L 618.41277,542.55998 L 622.96696,549.69624 L 622.96696,551.96239 z"
       id="path2744"
       style="fill:#000000;fill-opacity:1;fill-rule:nonzero;stroke:none" /><path
       d="M 640.86642,542.26457 C 639.77916,542.26457 639.57538,543.46534 639.57538,546.34283 C 639.57538,548.63223 639.55213,550.2173 640.86642,550.2173 C 642.24772,550.2173 642.22584,548.63223 642.22584,546.34283 C 642.22584,543.46534 642.02206,542.26457 640.86642,542.26457 M 636.38061,551.96239 L 636.38061,535.60424 L 639.57538,535.60424 L 639.57538,541.60811 L 639.62051,541.60811 C 640.27697,540.633 641.0702,540.29382 642.22584,540.29382 C 645.44386,540.29382 645.35223,543.85101 645.35223,546.1623 C 645.35223,548.51871 645.46574,552.18942 642.15746,552.18942 C 640.9348,552.18942 640.05132,551.80375 639.46187,550.69324 L 639.41674,550.69324 L 639.41674,551.96239 L 636.38061,551.96239 z"
       id="path2738"
       style="fill:#000000;fill-opacity:1;fill-rule:nonzero;stroke:none" /><path
       d="M 652.30796,542.26457 C 651.2207,542.26457 651.01692,543.46534 651.01692,546.34283 C 651.01692,548.63223 650.99367,550.2173 652.30796,550.2173 C 653.69063,550.2173 653.66738,548.63223 653.66738,546.34283 C 653.66738,543.46534 653.4636,542.26457 652.30796,542.26457 M 647.82215,551.96239 L 647.82215,535.60424 L 651.01692,535.60424 L 651.01692,541.60811 L 651.06206,541.60811 C 651.71851,540.633 652.51174,540.29382 653.66738,540.29382 C 656.8854,540.29382 656.79514,543.85101 656.79514,546.1623 C 656.79514,548.51871 656.90728,552.18942 653.60037,552.18942 C 652.37634,552.18942 651.49286,551.80375 650.90341,550.69324 L 650.85828,550.69324 L 650.85828,551.96239 L 647.82215,551.96239 z"
       id="path2734"
       style="fill:#000000;fill-opacity:1;fill-rule:nonzero;stroke:none" /><path
       d="M 662.20956,547.52172 C 662.20956,548.49547 662.18631,550.2173 663.65924,550.2173 C 665.1773,550.2173 665.13217,548.63223 665.13217,547.52172 L 662.20956,547.52172 z M 668.32694,545.7315 C 668.44045,549.4022 667.96452,552.18942 663.65924,552.18942 C 659.44559,552.18942 658.99291,549.51571 658.99291,546.38796 C 658.99291,542.80888 659.53585,540.29382 663.65924,540.29382 C 665.15542,540.29382 666.28781,540.70138 667.0359,541.40434 C 667.80588,542.10593 668.21343,543.12617 668.25856,544.37208 L 665.01866,544.37208 C 665.01866,543.42021 664.793,542.33295 663.65924,542.33295 C 662.25469,542.33295 662.20956,544.37208 662.20956,545.7315 L 668.32694,545.7315 z"
       id="path2730"
       style="fill:#000000;fill-opacity:1;fill-rule:nonzero;stroke:none" /><path
       d="M 670.79687,540.52085 L 673.99164,540.52085 L 673.99164,556.879 L 670.79687,556.879 L 670.79687,540.52085 z"
       id="path2726"
       style="fill:#000000;fill-opacity:1;fill-rule:nonzero;stroke:none" /><path
       d="M 679.83686,551.96239 L 676.64209,551.96239 L 676.64209,540.52085 L 679.83686,540.52085 L 679.83686,551.96239 z"
       id="path2724"
       style="fill:#000000;fill-opacity:1;fill-rule:nonzero;stroke:none" /><path
       d="M 676.64209,554.36394 L 679.83686,554.36394 L 679.83686,556.879 L 676.64209,556.879 L 676.64209,554.36394 z"
       id="path2722"
       style="fill:#000000;fill-opacity:1;fill-rule:nonzero;stroke:none" /><path
       d="M 685.7956,551.96239 L 682.60083,551.96239 L 682.60083,540.52085 L 685.7956,540.52085 L 685.7956,548.4052 C 685.7956,549.42408 685.97749,550.2173 686.99637,550.2173 C 688.01662,550.2173 688.19852,549.42408 688.19852,548.4052 L 688.19852,540.52085 L 691.39329,540.52085 L 691.39329,549.69624 C 691.39329,551.28268 690.05575,552.18942 688.53769,552.18942 C 687.94824,552.18942 687.42718,552.09779 686.97449,551.87213 C 686.54369,551.66835 686.15939,551.32781 685.8421,550.80675 L 685.7956,550.80675 L 685.7956,551.96239 z"
       id="path2720"
       style="fill:#000000;fill-opacity:1;fill-rule:nonzero;stroke:none" /><path
       d="M 705.23637,540.52085 L 708.54466,540.52085 C 708.47628,541.26757 708.43114,542.03891 708.43114,542.78564 L 708.43114,551.96239 L 705.23637,551.96239 L 705.23637,544.03154 C 705.23637,543.01266 705.05448,542.26457 704.0356,542.26457 C 703.01535,542.26457 702.83483,543.01266 702.83483,544.03154 L 702.83483,551.96239 L 699.64006,551.96239 L 699.64006,542.78564 C 699.64006,541.20056 700.97623,540.29382 702.49429,540.29382 C 703.10562,540.29382 703.6048,540.38409 704.05748,540.61111 C 704.51153,540.81489 704.87395,541.17731 705.19124,541.67649 L 705.23637,541.67649 L 705.23637,540.52085 z"
       id="path2718"
       style="fill:#000000;fill-opacity:1;fill-rule:nonzero;stroke:none" /><path
       d="M 714.27637,551.96239 L 711.0816,551.96239 L 711.0816,540.52085 L 714.27637,540.52085 L 714.27637,548.4052 C 714.27637,549.42408 714.45826,550.2173 715.47714,550.2173 C 716.49739,550.2173 716.67792,549.42408 716.67792,548.4052 L 716.67792,540.52085 L 719.87269,540.52085 L 719.87269,549.69624 C 719.87269,551.28268 718.53652,552.18942 717.01845,552.18942 C 716.42901,552.18942 715.90794,552.09779 715.45526,551.87213 C 715.02446,551.66835 714.63879,551.32781 714.3215,550.80675 L 714.27637,550.80675 L 714.27637,551.96239 z"
       id="path2716"
       style="fill:#000000;fill-opacity:1;fill-rule:nonzero;stroke:none" /><path
       d="M 725.6509,551.96239 L 722.45613,551.96239 L 722.45613,540.52085 L 725.6509,540.52085 L 725.6509,551.96239 z"
       id="path2714"
       style="fill:#000000;fill-opacity:1;fill-rule:nonzero;stroke:none" /><path
       d="M 722.45613,554.36394 L 725.6509,554.36394 L 725.6509,556.879 L 722.45613,556.879 L 722.45613,554.36394 z"
       id="path2712"
       style="fill:#000000;fill-opacity:1;fill-rule:nonzero;stroke:none" /><path
       d="M 730.77128,540.52085 L 734.28334,540.52085 L 737.43298,551.96239 L 734.30522,551.96239 L 732.62851,543.37508 L 732.58338,543.37508 L 730.97506,551.96239 L 727.73516,551.96239 L 730.77128,540.52085 z"
       id="path2710"
       style="fill:#000000;fill-opacity:1;fill-rule:nonzero;stroke:none" /><path
       d="M 741.94067,547.52172 C 741.94067,548.49547 741.91878,550.2173 743.39171,550.2173 C 744.90978,550.2173 744.86328,548.63223 744.86328,547.52172 L 741.94067,547.52172 z M 748.05805,545.7315 C 748.17156,549.4022 747.69563,552.18942 743.39171,552.18942 C 739.1767,552.18942 738.72401,549.51571 738.72401,546.38796 C 738.72401,542.80888 739.26696,540.29382 743.39171,540.29382 C 744.88653,540.29382 746.01892,540.70138 746.76701,541.40434 C 747.53698,542.10593 747.94453,543.12617 747.99103,544.37208 L 744.75113,544.37208 C 744.75113,543.42021 744.52411,542.33295 743.39171,542.33295 C 741.9858,542.33295 741.94067,544.37208 741.94067,545.7315 L 748.05805,545.7315 z"
       id="path2708"
       style="fill:#000000;fill-opacity:1;fill-rule:nonzero;stroke:none" /><path
       d="M 750.43771,551.96239 L 750.43771,540.52085 L 753.63248,540.52085 L 753.63248,546.75174 C 753.63248,547.88414 753.67761,549.51571 756.48808,549.33382 L 756.48808,552.18942 C 755.19568,552.18942 754.10842,551.80375 753.51897,550.48946 L 753.47384,550.48946 L 753.47384,551.96239 L 750.43771,551.96239 z"
       id="path2704"
       style="fill:#000000;fill-opacity:1;fill-rule:nonzero;stroke:none" /><path
       d="M 757.82425,544.19019 C 757.64236,540.99678 759.50096,540.29382 762.28817,540.29382 C 764.93863,540.29382 766.57021,541.78864 766.57021,543.78263 C 766.57021,547.45334 760.95064,547.36307 760.95064,549.17517 C 760.95064,549.94651 761.33631,550.3992 762.0379,550.3992 C 762.37844,550.3992 762.6506,550.35407 762.85437,550.15029 C 763.08003,549.94651 763.17166,549.47058 763.17166,548.67736 L 766.29805,548.67736 C 766.47857,551.14729 764.50783,552.18942 762.33331,552.18942 C 760.27093,552.18942 757.82425,551.44133 757.82425,548.9714 C 757.82425,545.32395 763.44245,545.86689 763.44245,543.44346 C 763.44245,542.67349 762.8995,542.26457 762.26493,542.26457 C 761.63035,542.26457 761.29118,542.44646 761.10928,542.80888 C 760.95064,543.17131 760.92876,543.66912 760.95064,544.19019 L 757.82425,544.19019 z"
       id="path2702"
       style="fill:#000000;fill-opacity:1;fill-rule:nonzero;stroke:none" /><path
       d="M 771.84923,551.96239 L 768.65446,551.96239 L 768.65446,540.52085 L 771.84923,540.52085 L 771.84923,551.96239 z"
       id="path2700"
       style="fill:#000000;fill-opacity:1;fill-rule:nonzero;stroke:none" /><path
       d="M 768.65446,554.36394 L 771.84923,554.36394 L 771.84923,556.879 L 768.65446,556.879 L 768.65446,554.36394 z"
       id="path2698"
       style="fill:#000000;fill-opacity:1;fill-rule:nonzero;stroke:none" /><path
       d="M 773.84323,549.99165 L 775.13427,549.99165 L 775.13427,542.94428 C 775.13427,542.24269 775.49669,540.40734 778.26065,540.40734 C 779.03063,540.40734 779.48468,540.47572 779.91548,540.52085 L 779.91548,542.4916 C 779.75684,542.44646 779.55169,542.44646 779.34792,542.44646 C 778.30579,542.44646 778.32904,543.01266 778.32904,543.87426 L 778.32904,549.99165 L 779.98249,549.99165 L 779.98249,551.96239 L 778.32904,551.96239 L 778.32904,555.20229 L 775.13427,553.77449 L 775.13427,551.96239 L 773.84323,551.96239 L 773.84323,549.99165 z"
       id="path2696"
       style="fill:#000000;fill-opacity:1;fill-rule:nonzero;stroke:none" /><path
       d="M 787.66307,546.04879 C 787.66307,544.80288 787.95848,542.26457 786.07799,542.26457 C 785.03586,542.26457 784.8991,543.26157 784.8991,544.07804 C 784.8991,546.11717 786.07799,545.9804 787.66307,546.04879 M 790.79083,548.36007 C 790.79083,550.44433 790.26976,552.18942 786.21339,552.18942 C 784.99073,552.18942 783.94723,551.98564 783.22239,551.44133 C 782.47567,550.92026 782.04487,550.03678 782.04487,548.65411 L 785.17126,548.65411 C 785.17126,549.56084 785.26152,550.3992 786.37203,550.3992 C 787.52767,550.3992 787.66307,549.69624 787.66307,548.72249 L 787.66307,547.83901 C 784.69533,547.88414 781.77271,547.72549 781.77271,543.94128 C 781.77271,541.94728 782.58782,540.29382 784.80884,540.29382 C 786.19151,540.29382 787.12012,540.86002 787.79983,542.03891 L 787.84496,542.03891 L 787.98036,540.52085 L 790.94947,540.52085 C 790.88109,541.22244 790.79083,541.94728 790.79083,542.65024 L 790.79083,548.36007 z M 787.25552,553.88801 L 789.77058,553.88801 L 789.77058,556.33469 L 787.25552,556.33469 L 787.25552,553.88801 z M 783.24564,553.88801 L 785.7607,553.88801 L 785.7607,556.33469 L 783.24564,556.33469 L 783.24564,553.88801 z"
       id="path2694"
       style="fill:#000000;fill-opacity:1;fill-rule:nonzero;stroke:none" /><path
       d="M 792.26376,549.99165 L 793.55479,549.99165 L 793.55479,542.94428 C 793.55479,542.24269 793.91721,540.40734 796.68118,540.40734 C 797.45115,540.40734 797.9052,540.47572 798.33601,540.52085 L 798.33601,542.4916 C 798.17736,542.44646 797.97359,542.44646 797.76844,542.44646 C 796.72631,542.44646 796.74956,543.01266 796.74956,543.87426 L 796.74956,549.99165 L 798.40302,549.99165 L 798.40302,551.96239 L 796.74956,551.96239 L 796.74956,555.20229 L 793.55479,553.77449 L 793.55479,551.96239 L 792.26376,551.96239 L 792.26376,549.99165 z"
       id="path23"
       style="fill:#000000;fill-opacity:1;fill-rule:nonzero;stroke:none" /><path
       d="M 704.04982,511.89005 L 704.06897,511.89005 L 706.12041,505.58257 L 706.97654,505.58257 L 708.80642,512.5342 L 708.1992,512.5342 L 706.59224,506.20758 L 706.57172,506.20758 L 704.45464,512.5342 L 703.69424,512.5342 L 701.66195,506.20758 L 701.64281,506.20758 L 700.02491,512.5342 L 699.36024,512.5342 L 701.17098,505.58257 L 702.0572,505.58257 L 704.04982,511.89005 z"
       id="path2831"
       style="fill:#000000;fill-opacity:1;fill-rule:nonzero;stroke:none" /><path
       d="M 710.4927,505.58257 L 711.06984,505.58257 L 711.06984,510.41575 L 710.4927,510.41575 L 710.4927,505.58257 z"
       id="path2829"
       style="fill:#000000;fill-opacity:1;fill-rule:nonzero;stroke:none" /><path
       d="M 711.1177,512.5342 L 710.44483,512.5342 L 710.44483,511.81347 L 711.1177,511.81347 L 711.1177,512.5342 z"
       id="path2827"
       style="fill:#000000;fill-opacity:1;fill-rule:nonzero;stroke:none" /><path
       d="M 713.82286,508.49151 C 713.84201,509.41602 714.2947,510.03145 715.1522,510.03145 C 715.26708,510.03145 715.3929,510.00273 715.50778,509.99316 L 715.50778,510.55115 C 715.31494,510.56072 715.12211,510.5703 714.93064,510.56072 C 714.44924,510.54021 714.0157,510.1942 713.84201,509.70459 L 713.82286,509.70459 L 713.79414,510.41575 L 713.19786,510.41575 C 713.21701,510.08889 713.2553,509.70322 713.24573,509.32713 L 713.24573,505.58257 L 713.82286,505.58257 L 713.82286,508.49151 z"
       id="path2825"
       style="fill:#000000;fill-opacity:1;fill-rule:nonzero;stroke:none" /><path
       d="M 717.4922,506.87224 C 717.4922,506.21715 717.42519,505.43897 718.64647,505.43897 C 718.83931,505.43897 719.05129,505.47726 719.23455,505.52513 L 719.23455,506.02431 C 719.08001,505.97645 718.90769,505.96687 718.734,505.96687 C 718.29089,505.96687 718.05976,506.20758 718.06934,506.65069 L 718.06934,509.88785 L 719.16754,509.88785 L 719.16754,510.41575 L 718.06934,510.41575 L 718.06934,511.69585 L 717.4922,511.44558 L 717.4922,510.41575 L 716.52939,510.41575 L 716.52939,509.88785 L 717.4922,509.88785 L 717.4922,506.87224 z"
       id="path2823"
       style="fill:#000000;fill-opacity:1;fill-rule:nonzero;stroke:none" /><path
       d="M 720.74714,509.21225 C 720.74714,508.31645 721.51712,508.0949 722.27752,507.913 C 723.04886,507.73931 723.80925,507.62307 723.80925,506.92968 C 723.80925,506.25544 723.16374,505.96687 722.54694,505.96687 C 721.89185,505.96687 721.25727,506.17886 721.20803,506.90096 L 720.5844,506.90096 C 720.60354,505.83285 721.56498,505.43897 722.40334,505.43897 C 723.42495,505.43897 724.43426,505.92858 724.43426,507.01721 C 724.43426,507.53691 724.11697,507.97044 723.61642,508.14413 C 722.30624,508.60639 721.37215,508.53801 721.37215,509.25191 C 721.37215,509.81947 721.92193,510.03145 722.46078,510.03145 C 723.05843,510.03145 723.59727,509.82904 723.65608,509.22319 L 724.27972,509.22319 C 724.20313,510.24343 723.43453,510.56072 722.51822,510.56072 C 721.67029,510.56072 720.74714,510.21471 720.74714,509.21225"
       id="path2821"
       style="fill:#000000;fill-opacity:1;fill-rule:nonzero;stroke:none" /><path
       d="M 730.02921,508.93325 C 729.98134,509.96444 729.17308,510.56072 728.18155,510.56072 C 726.74554,510.56072 726.02481,509.30935 726.02481,507.99916 C 726.02481,506.67941 726.69768,505.43897 728.14189,505.43897 C 729.24009,505.43897 729.87467,505.98602 730.02921,507.0938 L 729.4042,507.0938 C 729.35634,506.42913 728.83664,505.96687 728.08445,505.96687 C 727.19823,505.96687 726.64844,506.90096 726.64844,508.00874 C 726.64844,509.10694 727.19823,510.03145 728.08445,510.03145 C 728.88451,510.03145 729.35634,509.6745 729.4042,508.93325 L 730.02921,508.93325 z"
       id="path2819"
       style="fill:#000000;fill-opacity:1;fill-rule:nonzero;stroke:none" /><path
       d="M 731.88781,512.5342 L 731.31067,512.5342 L 731.31067,505.58257 L 731.88781,505.58257 L 731.88781,508.36569 C 731.88781,509.23276 732.32135,510.03145 733.27458,510.03145 C 734.06507,510.03145 734.54647,509.54048 734.54647,508.70212 L 734.54647,505.58257 L 735.12361,505.58257 L 735.12361,508.60639 C 735.12361,509.16438 734.99779,510.56072 733.41955,510.56072 C 732.79318,510.56072 732.24476,510.28173 731.90696,509.68544 L 731.88781,509.68544 L 731.88781,512.5342 z"
       id="path2817"
       style="fill:#000000;fill-opacity:1;fill-rule:nonzero;stroke:none" /><path
       d="M 737.49233,506.92968 C 737.49233,508.14413 739.20733,507.98959 740.02517,508.01968 C 740.08398,507.00764 739.84328,505.96687 738.58096,505.96687 C 737.99288,505.96687 737.49233,506.27459 737.49233,506.92968 M 740.02517,508.54758 C 739.32221,508.50929 738.48386,508.60502 737.83834,508.32603 C 737.2612,508.08669 736.86733,507.58614 736.86733,506.92968 C 736.86733,505.98602 737.57849,505.43897 738.47429,505.43897 C 739.12938,505.43897 739.7749,505.82327 739.98688,506.22672 L 740.0156,506.29374 L 740.03611,506.29374 L 740.05526,505.58257 L 740.65018,505.58257 C 740.63103,505.9108 740.59274,506.2951 740.60231,506.6712 L 740.60231,508.96197 C 740.62146,510.06975 739.95816,510.56072 738.88868,510.56072 C 737.96416,510.56072 737.22291,510.18599 737.07931,509.1931 L 737.69474,509.1931 C 737.77133,509.84819 738.27188,510.03145 738.8791,510.03145 C 739.56291,510.03145 739.96773,509.78118 740.02517,508.99069 L 740.02517,508.54758 z"
       id="path2815"
       style="fill:#000000;fill-opacity:1;fill-rule:nonzero;stroke:none" /><path
       d="M 743.72186,505.58257 L 743.72186,509.88785 L 744.82006,509.88785 L 744.82006,510.41575 L 743.72186,510.41575 L 743.72186,511.03255 C 743.69314,511.72594 743.71229,512.12118 744.50277,512.12118 C 744.61765,512.12118 744.74347,512.10204 744.85835,512.08289 L 744.85835,512.5342 C 744.68467,512.58207 744.4932,512.64908 744.30994,512.64908 C 743.48253,512.64908 743.14609,512.27436 743.14609,511.44694 L 743.14609,510.41575 L 742.17371,510.41575 L 742.17371,509.88785 L 743.14609,509.88785 L 743.14609,505.58257 L 743.72186,505.58257 z"
       id="path2811"
       style="fill:#000000;fill-opacity:1;fill-rule:nonzero;stroke:none" /><path
       d="M 746.49677,506.87224 C 746.49677,506.21715 746.42975,505.43897 747.65104,505.43897 C 747.84388,505.43897 748.05586,505.47726 748.23912,505.52513 L 748.23912,506.02431 C 748.08458,505.97645 747.91089,505.96687 747.7372,505.96687 C 747.29546,505.96687 747.06433,506.20758 747.07391,506.65069 L 747.07391,509.88785 L 748.17074,509.88785 L 748.17074,510.41575 L 747.07391,510.41575 L 747.07391,511.69585 L 746.49677,511.44558 L 746.49677,510.41575 L 745.53396,510.41575 L 745.53396,509.88785 L 746.49677,509.88785 L 746.49677,506.87224 z"
       id="path2809"
       style="fill:#000000;fill-opacity:1;fill-rule:nonzero;stroke:none" /><path
       d="M 754.08708,505.58257 L 754.09665,509.21225 L 757.42819,505.58257 L 758.28569,505.58257 L 754.79004,509.39551 L 757.99712,512.5342 L 757.20663,512.5342 L 754.09665,509.47209 L 754.08708,512.5342 L 753.46892,512.5342 L 753.46892,505.58257 L 754.08708,505.58257 z"
       id="path2807"
       style="fill:#000000;fill-opacity:1;fill-rule:nonzero;stroke:none" /><path
       d="M 762.77013,507.63264 C 762.77013,506.76557 762.33659,505.96687 761.38335,505.96687 C 760.59287,505.96687 760.11146,506.45785 760.11146,507.2962 L 760.11146,510.41575 L 759.53433,510.41575 L 759.53433,507.39194 C 759.53433,506.83395 759.66015,505.43897 761.23839,505.43897 C 761.86476,505.43897 762.41318,505.7166 762.75098,506.31288 L 762.77013,506.29374 L 762.79885,505.58257 L 763.39513,505.58257 C 763.37598,505.9108 763.34726,506.2951 763.34726,506.6712 L 763.34726,510.41575 L 762.77013,510.41575 L 762.77013,507.63264 z"
       id="path2805"
       style="fill:#000000;fill-opacity:1;fill-rule:nonzero;stroke:none" /><path
       d="M 766.10029,512.5342 L 765.52452,512.5342 L 765.52452,505.58257 L 766.10029,505.58257 L 766.10029,512.5342 z"
       id="path2803"
       style="fill:#000000;fill-opacity:1;fill-rule:nonzero;stroke:none" /><path
       d="M 768.69194,506.87224 C 768.69194,506.21715 768.62492,505.43897 769.84621,505.43897 C 770.03905,505.43897 770.25103,505.47726 770.43429,505.52513 L 770.43429,506.02431 C 770.27975,505.97645 770.10606,505.96687 769.93237,505.96687 C 769.49063,505.96687 769.2595,506.20758 769.26907,506.65069 L 769.26907,509.88785 L 770.36591,509.88785 L 770.36591,510.41575 L 769.26907,510.41575 L 769.26907,511.69585 L 768.69194,511.44558 L 768.69194,510.41575 L 767.72913,510.41575 L 767.72913,509.88785 L 768.69194,509.88785 L 768.69194,506.87224 z"
       id="path2801"
       style="fill:#000000;fill-opacity:1;fill-rule:nonzero;stroke:none" /><path
       d="M 775.10473,507.63264 C 775.10473,506.76557 774.67119,505.96687 773.71795,505.96687 C 772.92747,505.96687 772.44606,506.45785 772.44606,507.2962 L 772.44606,510.41575 L 771.8703,510.41575 L 771.8703,507.39194 C 771.8703,506.83395 771.99475,505.43897 773.57299,505.43897 C 774.19936,505.43897 774.74914,505.7166 775.08558,506.31288 L 775.10473,506.29374 L 775.13345,505.58257 L 775.72973,505.58257 C 775.71058,505.9108 775.68186,506.2951 775.68186,506.6712 L 775.68186,510.41575 L 775.10473,510.41575 L 775.10473,507.63264 z"
       id="path2799"
       style="fill:#000000;fill-opacity:1;fill-rule:nonzero;stroke:none" /><path
       d="M 778.42668,508.49151 C 778.44583,509.41602 778.89851,510.03145 779.75465,510.03145 C 779.8709,510.03145 779.99535,510.00273 780.1116,509.99316 L 780.1116,510.55115 C 779.91876,510.56072 779.72593,510.5703 779.53309,510.56072 C 779.05169,510.54021 778.61815,510.1942 778.44583,509.70459 L 778.42668,509.70459 L 778.39796,510.41575 L 777.80168,510.41575 C 777.82083,510.08889 777.85912,509.70322 777.84955,509.32713 L 777.84955,505.58257 L 778.42668,505.58257 L 778.42668,508.49151 z"
       id="path2797"
       style="fill:#000000;fill-opacity:1;fill-rule:nonzero;stroke:none" /><path
       d="M 785.80228,511.95707 L 787.32445,511.95707 C 788.25853,511.95707 789.08731,511.65892 789.08731,510.5703 C 789.08731,509.48167 788.25853,509.18353 787.32445,509.18353 L 785.80228,509.18353 L 785.80228,511.95707 z M 785.80228,505.58257 L 785.80228,508.60639 L 786.91963,508.60639 C 788.25853,508.57767 789.76018,508.9141 789.76018,510.5703 C 789.76018,512.22649 788.25853,512.56292 786.91963,512.5342 L 785.17728,512.5342 L 785.17728,505.58257 L 785.80228,505.58257 z"
       id="path2795"
       style="fill:#000000;fill-opacity:1;fill-rule:nonzero;stroke:none" /><path
       d="M 794.499,507.99916 C 794.499,507.10337 794.03674,505.96687 792.87153,505.96687 C 791.70494,505.96687 791.24269,507.10337 791.24269,507.99916 C 791.24269,508.89496 791.70494,510.03145 792.87153,510.03145 C 794.03674,510.03145 794.499,508.89496 794.499,507.99916 M 792.87153,510.56072 C 791.33022,510.56072 790.61768,509.27105 790.61768,507.99916 C 790.61768,506.72727 791.33022,505.43897 792.87153,505.43897 C 794.41284,505.43897 795.124,506.72727 795.124,507.99916 C 795.124,509.27105 794.41284,510.56072 792.87153,510.56072"
       id="path2791"
       style="fill:#000000;fill-opacity:1;fill-rule:nonzero;stroke:none" /><path
       d="M 797.53102,512.5342 L 796.95389,512.5342 L 796.95389,505.58257 L 797.53102,505.58257 L 797.53102,512.5342 z"
       id="path2787"
       style="fill:#000000;fill-opacity:1;fill-rule:nonzero;stroke:none" /><path
       d="M 799.71785,505.58257 L 800.29499,505.58257 L 800.29499,510.41575 L 799.71785,510.41575 L 799.71785,505.58257 z"
       id="path2785"
       style="fill:#000000;fill-opacity:1;fill-rule:nonzero;stroke:none" /><path
       d="M 800.34286,512.5342 L 799.66999,512.5342 L 799.66999,511.81347 L 800.34286,511.81347 L 800.34286,512.5342 z"
       id="path2783"
       style="fill:#000000;fill-opacity:1;fill-rule:nonzero;stroke:none" /><path
       d="M 802.88527,506.87224 C 802.88527,506.21715 802.81826,505.43897 804.03955,505.43897 C 804.23238,505.43897 804.44436,505.47726 804.62762,505.52513 L 804.62762,506.02431 C 804.47308,505.97645 804.30076,505.96687 804.12707,505.96687 C 803.68396,505.96687 803.45283,506.20758 803.46241,506.65069 L 803.46241,509.88785 L 804.56061,509.88785 L 804.56061,510.41575 L 803.46241,510.41575 L 803.46241,511.69585 L 802.88527,511.44558 L 802.88527,510.41575 L 801.92246,510.41575 L 801.92246,509.88785 L 802.88527,509.88785 L 802.88527,506.87224 z"
       id="path2781"
       style="fill:#000000;fill-opacity:1;fill-rule:nonzero;stroke:none" /><path
       d="M 806.3139,505.58257 L 806.89104,505.58257 L 806.89104,510.41575 L 806.3139,510.41575 L 806.3139,505.58257 z"
       id="path2779"
       style="fill:#000000;fill-opacity:1;fill-rule:nonzero;stroke:none" /><path
       d="M 806.93891,512.5342 L 806.26604,512.5342 L 806.26604,511.81347 L 806.93891,511.81347 L 806.93891,512.5342 z"
       id="path2777"
       style="fill:#000000;fill-opacity:1;fill-rule:nonzero;stroke:none" /><path
       d="M 809.70151,512.5342 L 809.12574,512.5342 L 809.12574,505.58257 L 809.70151,505.58257 L 809.70151,508.20157 L 812.24392,505.58257 L 812.9756,505.58257 L 810.33745,508.32603 L 812.78413,510.41575 L 812.04151,510.41575 L 809.70151,508.44227 L 809.70151,512.5342 z"
       id="path27"
       style="fill:#000000;fill-opacity:1;fill-rule:nonzero;stroke:none" /><path
       d="M 699.64963,518.61083 L 703.15348,518.61083 L 703.15348,519.13873 L 700.35259,519.13873 L 703.15348,522.91474 L 703.15348,523.44401 L 699.64963,523.44401 L 699.64963,522.91474 L 702.46967,522.91474 L 699.64963,519.13873 L 699.64963,518.61083 z"
       id="path2772"
       style="fill:#000000;fill-opacity:1;fill-rule:nonzero;stroke:none" /><path
       d="M 704.95464,523.44401 L 704.32007,523.44401 L 706.09114,518.61083 L 706.67922,518.61083 L 708.19044,522.78072 L 708.20959,522.78072 L 709.69209,518.61083 L 710.24051,518.61083 L 712.04167,523.44401 L 711.40573,523.44401 L 710.00938,519.40952 L 709.99024,519.40952 L 708.56517,523.44401 L 707.88273,523.44401 L 706.41937,519.36986 L 706.39886,519.36986 L 704.95464,523.44401 z"
       id="path2770"
       style="fill:#000000;fill-opacity:1;fill-rule:nonzero;stroke:none" /><path
       d="M 713.59256,518.61083 L 714.16969,518.61083 L 714.16969,523.44401 L 713.59256,523.44401 L 713.59256,518.61083 z"
       id="path2768"
       style="fill:#000000;fill-opacity:1;fill-rule:nonzero;stroke:none" /><path
       d="M 714.21756,525.56246 L 713.54469,525.56246 L 713.54469,524.84173 L 714.21756,524.84173 L 714.21756,525.56246 z"
       id="path2766"
       style="fill:#000000;fill-opacity:1;fill-rule:nonzero;stroke:none" /><path
       d="M 716.18284,522.2405 C 716.18284,521.34471 716.95281,521.12316 717.71321,520.94126 C 718.48455,520.76757 719.24495,520.65133 719.24495,519.95794 C 719.24495,519.2837 718.59943,518.99513 717.98263,518.99513 C 717.32754,518.99513 716.69159,519.20711 716.64373,519.92922 L 716.01872,519.92922 C 716.03924,518.85974 717.00068,518.46586 717.83903,518.46586 C 718.85928,518.46586 719.86995,518.95684 719.86995,520.04547 C 719.86995,520.56517 719.55266,520.9987 719.05211,521.17102 C 717.74193,521.63465 716.80784,521.56627 716.80784,522.2788 C 716.80784,522.84773 717.35763,523.05971 717.89647,523.05971 C 718.49412,523.05971 719.03296,522.8573 719.09177,522.25008 L 719.71541,522.25008 C 719.63882,523.27169 718.87022,523.58761 717.95391,523.58761 C 717.10598,523.58761 716.18284,523.24297 716.18284,522.2405"
       id="path2764"
       style="fill:#000000;fill-opacity:1;fill-rule:nonzero;stroke:none" /><path
       d="M 725.4649,521.96151 C 725.41703,522.9927 724.60877,523.58761 723.61587,523.58761 C 722.18124,523.58761 721.4605,522.33761 721.4605,521.02742 C 721.4605,519.70767 722.13337,518.46586 723.57758,518.46586 C 724.67578,518.46586 725.31036,519.01428 725.4649,520.12206 L 724.8399,520.12206 C 724.79203,519.45739 724.27096,518.99513 723.52014,518.99513 C 722.63392,518.99513 722.08413,519.92922 722.08413,521.037 C 722.08413,522.1352 722.63392,523.05971 723.52014,523.05971 C 724.3202,523.05971 724.79203,522.70276 724.8399,521.96151 L 725.4649,521.96151 z"
       id="path2762"
       style="fill:#000000;fill-opacity:1;fill-rule:nonzero;stroke:none" /><path
       d="M 727.3235,525.56246 L 726.74636,525.56246 L 726.74636,518.61083 L 727.3235,518.61083 L 727.3235,521.39395 C 727.3235,522.26102 727.75704,523.05971 728.71027,523.05971 C 729.50076,523.05971 729.98216,522.56873 729.98216,521.73038 L 729.98216,518.61083 L 730.5593,518.61083 L 730.5593,521.63465 C 730.5593,522.19264 730.43348,523.58761 728.85524,523.58761 C 728.22887,523.58761 727.68045,523.30999 727.34265,522.71234 L 727.3235,522.71234 L 727.3235,525.56246 z"
       id="path2760"
       style="fill:#000000;fill-opacity:1;fill-rule:nonzero;stroke:none" /><path
       d="M 736.7984,520.8934 C 736.7984,522.40462 736.21306,523.58761 734.59379,523.58761 C 733.15915,523.58761 732.43841,522.33761 732.43841,521.02742 C 732.43841,519.70767 733.10992,518.46586 734.5555,518.46586 C 735.72071,518.46586 736.44282,518.99513 736.74096,520.15078 L 736.1351,520.15078 C 735.9915,519.48611 735.42257,518.99513 734.73876,518.99513 C 733.5544,518.99513 733.0812,519.86221 733.06205,520.8934 L 736.7984,520.8934 z M 733.0812,521.4213 C 733.15915,522.26922 733.6597,523.05971 734.60336,523.05971 C 735.60583,523.05971 736.10638,522.35675 736.1734,521.4213 L 733.0812,521.4213 z"
       id="path2758"
       style="fill:#000000;fill-opacity:1;fill-rule:nonzero;stroke:none" /><path
       d="M 739.28337,521.39395 C 739.28337,522.26102 739.71691,523.05971 740.67014,523.05971 C 741.46063,523.05971 741.94203,522.56873 741.94203,521.73038 L 741.94203,518.61083 L 742.51917,518.61083 L 742.51917,521.63465 C 742.51917,522.19264 742.39335,523.58761 740.81511,523.58761 C 740.18874,523.58761 739.63895,523.30999 739.30252,522.71234 L 739.28337,522.73285 L 739.25465,523.44401 L 738.65837,523.44401 C 738.67752,523.11578 738.70624,522.73148 738.70624,522.35539 L 738.70624,518.61083 L 739.28337,518.61083 L 739.28337,521.39395 z"
       id="path31"
       style="fill:#000000;fill-opacity:1;fill-rule:nonzero;stroke:none" /></g></svg>